<svg width="12" height="12" viewBox="0 0 12 12" fill="none" xmlns="http://www.w3.org/2000/svg">
<path d="M1.875 1.875V8.625C1.875 9.45225 2.54775 10.125 3.375 10.125C4.20225 10.125 4.875 9.45225 4.875 8.625V1.875H1.875ZM2.625 2.625H4.125V4.125H2.625V2.625ZM7.08765 2.79126L5.43823 4.44141V5.50122L7.08691 3.85181L8.14819 4.91235L5.4375 7.62305V8.625C5.4375 8.646 5.43495 8.66552 5.43457 8.68652L9.20874 4.91309L7.08765 2.79126ZM2.625 4.875H4.125V6.375H2.625V4.875ZM2.625 7.125H4.125V8.625C4.125 9.03863 3.78863 9.375 3.375 9.375C2.96137 9.375 2.625 9.03863 2.625 8.625V7.125ZM7.7915 7.125L7.0415 7.875H9.375V9.375H5.5415L4.83325 10.0833C4.8175 10.099 4.79884 10.11 4.78271 10.125H10.125V7.125H7.7915Z" fill="#808080"/>
</svg>
