<svg width="24" height="25" viewBox="0 0 24 25" fill="none" xmlns="http://www.w3.org/2000/svg">
<path d="M1.5 21.5C1.5 21.5 0 21.5 0 20C0 18.5 1.5 14 9 14C16.5 14 18 18.5 18 20C18 21.5 16.5 21.5 16.5 21.5H1.5ZM9 12.5C10.1935 12.5 11.3381 12.0259 12.182 11.182C13.0259 10.3381 13.5 9.19347 13.5 8C13.5 6.80653 13.0259 5.66193 12.182 4.81802C11.3381 3.97411 10.1935 3.5 9 3.5C7.80653 3.5 6.66193 3.97411 5.81802 4.81802C4.97411 5.66193 4.5 6.80653 4.5 8C4.5 9.19347 4.97411 10.3381 5.81802 11.182C6.66193 12.0259 7.80653 12.5 9 12.5Z" fill="#fff"/>
<path fill-rule="evenodd" clip-rule="evenodd" d="M20.25 8C20.4489 8 20.6397 8.07902 20.7803 8.21967C20.921 8.36032 21 8.55109 21 8.75V11H23.25C23.4489 11 23.6397 11.079 23.7803 11.2197C23.921 11.3603 24 11.5511 24 11.75C24 11.9489 23.921 12.1397 23.7803 12.2803C23.6397 12.421 23.4489 12.5 23.25 12.5H21V14.75C21 14.9489 20.921 15.1397 20.7803 15.2803C20.6397 15.421 20.4489 15.5 20.25 15.5C20.0511 15.5 19.8603 15.421 19.7197 15.2803C19.579 15.1397 19.5 14.9489 19.5 14.75V12.5H17.25C17.0511 12.5 16.8603 12.421 16.7197 12.2803C16.579 12.1397 16.5 11.9489 16.5 11.75C16.5 11.5511 16.579 11.3603 16.7197 11.2197C16.8603 11.079 17.0511 11 17.25 11H19.5V8.75C19.5 8.55109 19.579 8.36032 19.7197 8.21967C19.8603 8.07902 20.0511 8 20.25 8Z" fill="#fff"/>
</svg>
