<svg width="15" height="14" viewBox="0 0 15 14" fill="none" xmlns="http://www.w3.org/2000/svg">
<path d="M8.16621 0.353271V1.69994C11.0929 2.05994 13.1662 4.71994 12.8062 7.6466C12.4995 10.0733 10.5929 11.9999 8.16621 12.2866V13.6199C11.8329 13.2533 14.4995 9.99994 14.1329 6.33327C13.8329 3.1666 11.3195 0.666605 8.16621 0.353271ZM6.83288 0.373271C5.53288 0.499938 4.29288 0.999938 3.27954 1.83994L4.23288 2.8266C4.97954 2.2266 5.87954 1.83994 6.83288 1.7066V0.373271ZM2.33954 2.77994C1.50598 3.7915 0.993012 5.02866 0.866211 6.33327H2.19954C2.32621 5.3866 2.69954 4.4866 3.29288 3.73327L2.33954 2.77994ZM9.83288 4.6666L6.57954 7.91994L5.16621 6.5066L4.45954 7.21327L6.57954 9.33327L10.5395 5.37327L9.83288 4.6666ZM0.872878 7.6666C1.00621 8.97327 1.51954 10.2066 2.34621 11.2199L3.29288 10.2666C2.70416 9.513 2.32885 8.615 2.20621 7.6666H0.872878ZM4.23288 11.2466L3.27954 12.1599C4.2894 13.0017 5.52572 13.526 6.83288 13.6666V12.3333C5.88448 12.2106 4.98648 11.8353 4.23288 11.2466Z" fill="#73CA5C"/>
</svg>
