<svg width="12" height="12" viewBox="0 0 12 12" fill="none" xmlns="http://www.w3.org/2000/svg">
<path d="M4.3125 10.5H5.4375C5.54063 10.5 5.625 10.4156 5.625 10.3125V1.6875C5.625 1.58437 5.54063 1.5 5.4375 1.5H4.3125C4.20937 1.5 4.125 1.58437 4.125 1.6875V10.3125C4.125 10.4156 4.20937 10.5 4.3125 10.5ZM2.0625 10.5H3.1875C3.29062 10.5 3.375 10.4156 3.375 10.3125V6.9375C3.375 6.83437 3.29062 6.75 3.1875 6.75H2.0625C1.95937 6.75 1.875 6.83437 1.875 6.9375V10.3125C1.875 10.4156 1.95937 10.5 2.0625 10.5ZM6.56484 10.5H7.68516C7.79062 10.5 7.875 10.4156 7.875 10.3102V5.43984C7.875 5.33438 7.79062 5.25 7.68516 5.25H6.56484C6.45938 5.25 6.375 5.33438 6.375 5.43984V10.3102C6.375 10.4156 6.45938 10.5 6.56484 10.5ZM8.625 3.18984V10.3102C8.625 10.4156 8.70938 10.5 8.81484 10.5H9.93516C10.0406 10.5 10.125 10.4156 10.125 10.3102V3.18984C10.125 3.08438 10.0406 3 9.93516 3H8.81484C8.70938 3 8.625 3.08438 8.625 3.18984Z" fill="#808080"/>
</svg>
