<svg width="14" height="14" viewBox="0 0 14 14" fill="none" xmlns="http://www.w3.org/2000/svg">
<g clip-path="url(#clip0_187_4839)">
<path d="M9.9165 1.94835C10.7963 2.45635 11.5282 3.18533 12.0397 4.06311C12.5512 4.9409 12.8246 5.93705 12.8328 6.95297C12.841 7.96888 12.5838 8.96932 12.0865 9.85526C11.5893 10.7412 10.8692 11.4819 9.99773 12.004C9.12623 12.5262 8.13347 12.8117 7.11773 12.8322C6.10199 12.8528 5.09849 12.6077 4.20658 12.1212C3.31466 11.6348 2.56526 10.9238 2.03256 10.0587C1.49986 9.19365 1.20233 8.20443 1.16942 7.18902L1.1665 7.00002L1.16942 6.81102C1.20209 5.8036 1.49524 4.82183 2.02029 3.96143C2.54535 3.10103 3.28439 2.39137 4.16536 1.90162C5.04633 1.41187 6.03917 1.15875 7.04709 1.16694C8.05501 1.17513 9.04361 1.44435 9.9165 1.94835ZM9.16225 5.42094C9.06181 5.3205 8.92817 5.26016 8.7864 5.25125C8.64464 5.24234 8.50449 5.28546 8.39225 5.37252L8.33742 5.42094L6.4165 7.34127L5.66225 6.5876L5.60742 6.53919C5.49518 6.45218 5.35505 6.40912 5.21332 6.41806C5.07159 6.427 4.93799 6.48734 4.83757 6.58775C4.73716 6.68817 4.67682 6.82177 4.66788 6.9635C4.65894 7.10524 4.702 7.24536 4.789 7.3576L4.83742 7.41244L6.00409 8.5791L6.05892 8.62752C6.16122 8.70689 6.28702 8.74997 6.4165 8.74997C6.54598 8.74997 6.67179 8.70689 6.77409 8.62752L6.82892 8.5791L9.16225 6.24577L9.21067 6.19094C9.29773 6.0787 9.34085 5.93855 9.33194 5.79679C9.32302 5.65502 9.26269 5.52138 9.16225 5.42094Z" fill="#057AFF"/>
</g>
<defs>
<clipPath id="clip0_187_4839">
<rect width="14" height="14" fill="white"/>
</clipPath>
</defs>
</svg>
