<svg width="20" height="21" viewBox="0 0 20 21" fill="none" xmlns="http://www.w3.org/2000/svg">
<path d="M17.0012 3.40756C16.0843 2.48216 14.9924 1.74849 13.7891 1.24932C12.5858 0.750144 11.2952 0.495445 9.9925 0.500062C4.53375 0.500062 0.085 4.94756 0.08 10.4076C0.08 12.1563 0.5375 13.8576 1.40125 15.3638L0 20.5001L5.255 19.1226C6.70876 19.9137 8.33741 20.3284 9.9925 20.3288H9.9975C15.4575 20.3288 19.905 15.8813 19.91 10.4163C19.9112 9.11387 19.6548 7.82405 19.1553 6.62116C18.6559 5.41827 17.9246 4.3261 17.0012 3.40756ZM9.9925 18.6513C8.51625 18.6518 7.06713 18.2546 5.7975 17.5013L5.4975 17.3213L2.38 18.1388L3.2125 15.0976L3.0175 14.7838C2.19226 13.4717 1.75581 11.9526 1.75875 10.4026C1.75875 5.87006 5.455 2.17256 9.9975 2.17256C11.0797 2.17062 12.1515 2.3829 13.1513 2.79718C14.151 3.21145 15.0589 3.81951 15.8225 4.58631C16.5888 5.35012 17.1963 6.25809 17.6099 7.25785C18.0235 8.25761 18.2351 9.32937 18.2325 10.4113C18.2275 14.9601 14.5312 18.6513 9.9925 18.6513ZM14.5113 12.4838C14.265 12.3601 13.0487 11.7613 12.82 11.6763C12.5925 11.5951 12.4262 11.5526 12.2638 11.8001C12.0975 12.0463 11.6225 12.6076 11.48 12.7688C11.3375 12.9351 11.19 12.9538 10.9425 12.8313C10.6962 12.7063 9.8975 12.4463 8.9525 11.6001C8.215 10.9438 7.72125 10.1313 7.57375 9.88506C7.43125 9.63756 7.56 9.50506 7.68375 9.38131C7.7925 9.27131 7.93 9.09131 8.05375 8.94881C8.17875 8.80631 8.22 8.70131 8.30125 8.53631C8.3825 8.36881 8.34375 8.22631 8.2825 8.10256C8.22 7.97881 7.72625 6.75756 7.5175 6.26506C7.3175 5.77881 7.11375 5.84631 6.96125 5.84006C6.81875 5.83131 6.6525 5.83131 6.48625 5.83131C6.3607 5.83443 6.23716 5.86347 6.12337 5.9166C6.00958 5.96973 5.90799 6.04581 5.825 6.14006C5.5975 6.38756 4.96125 6.98631 4.96125 8.20756C4.96125 9.42881 5.84875 10.6026 5.97375 10.7688C6.09625 10.9351 7.71625 13.4338 10.2025 14.5088C10.79 14.7651 11.2525 14.9163 11.6138 15.0313C12.2075 15.2213 12.7437 15.1926 13.1712 15.1313C13.6462 15.0588 14.635 14.5313 14.8438 13.9526C15.0487 13.3726 15.0488 12.8776 14.9862 12.7738C14.925 12.6688 14.7587 12.6076 14.5113 12.4838Z" fill="white"/>
</svg>
